# xmcd
#
# Track frame offsets: 
#        150
#        13772
#        26737
#        39949
#        51917
#        65757
#        78337
#        91542
#        105395
#        122780
#        134048
#        145645
#        157374
#        170475
#        182719
#        195847
#        207637
#        220994
#        230815
#        242111
#        255173
#        268627
#        278791
#        292512
#
# Disc length: 4069 seconds
#
# Revision: 0
# Processed by: cddbd v1.5.2PL0 Copyright (c) Steve Scherf et al.
# Submitted via: ExactAudioCopyFreeDBPlugin 1.0
#
DISCID=5a0fe318
DTITLE=Albert King - Bad Luck Blues
DYEAR=2012
DGENRE=Blues
TTITLE0=Bad Luck Blues
TTITLE1=(Be On) Your Merry Way
TTITLE2=Murder
TTITLE3=Wild Women
TTITLE4=Searchin' For A Woman
TTITLE5=California
TTITLE6=Won't Be Hangin' Around
TTITLE7=Howlin' For My Darlin'
TTITLE8=Ooh-Ee Baby
TTITLE9=Why Are You So Mean To Me
TTITLE10=Need You By My Side
TTITLE11=The Time Has Come
TTITLE12=Let's Have A Natural Ball
TTITLE13=Blues At Sunrise
TTITLE14=I Walked All Night Long
TTITLE15=I've Made Nights By Myself
TTITLE16=Don't Throw Your Love On Me So Strong
TTITLE17=This Morning
TTITLE18=I Get Evil
TTITLE19=What Can I Do To Change Your Mind?
TTITLE20=I'll Do Anything You Say
TTITLE21=Got To Be Some Changes Made
TTITLE22=Travelin' To California
TTITLE23=Dyna Flow
EXTD=
EXTT0=
EXTT1=
EXTT2=
EXTT3=
EXTT4=
EXTT5=
EXTT6=
EXTT7=
EXTT8=
EXTT9=
EXTT10=
EXTT11=
EXTT12=
EXTT13=
EXTT14=
EXTT15=
EXTT16=
EXTT17=
EXTT18=
EXTT19=
EXTT20=
EXTT21=
EXTT22=
EXTT23=
PLAYORDER=
